<svg class="nc-icon glyph" xmlns="http://www.w3.org/2000/svg" xmlns:xlink="http://www.w3.org/1999/xlink" x="0px" y="0px" width="48px" height="48px" viewBox="0 0 48 48"><g>
<path fill="#ffffff" d="M37.293,7.595L23.858,21.03L10.423,7.595c-0.391-0.39-1.024-0.391-1.414,0L7.594,9.009
	c-0.391,0.391-0.391,1.024,0,1.414L21.03,23.858L7.594,37.293c-0.391,0.391-0.391,1.024,0,1.414l1.414,1.414
	c0.391,0.39,1.024,0.39,1.414,0l13.435-13.435l13.435,13.435c0.391,0.39,1.024,0.391,1.414,0l1.414-1.414
	c0.391-0.391,0.391-1.024,0-1.414L26.686,23.858l13.435-13.435c0.391-0.391,0.391-1.024,0-1.414l-1.414-1.414
	C38.317,7.204,37.683,7.204,37.293,7.595z"></path>
</g></svg>