<?xml version="1.0" encoding="UTF-8"?>
<svg width="20px" height="20px" viewBox="0 0 20 20" version="1.1" xmlns="http://www.w3.org/2000/svg" xmlns:xlink="http://www.w3.org/1999/xlink">
    <!-- Generator: Sketch 39.1 (31720) - http://www.bohemiancoding.com/sketch -->
    <title>Group 3 Copy</title>
    <desc>Created with Sketch.</desc>
    <defs>
        <ellipse id="path-1" cx="8" cy="8" rx="8" ry="8"></ellipse>
        <mask id="mask-2" maskContentUnits="userSpaceOnUse" maskUnits="objectBoundingBox" x="-1.2" y="-1.2" width="18.4" height="18.4">
            <rect x="-1.2" y="-1.2" width="18.4" height="18.4" fill="white"></rect>
            <use xlink:href="#path-1" fill="black"></use>
        </mask>
    </defs>
    <g id="Small-DARK-Concept" stroke="none" stroke-width="1" fill="none" fill-rule="evenodd">
        <g id="5---Dark-Notification" transform="translate(-1216.000000, -277.000000)">
            <g id="Group" transform="translate(1195.000000, 256.000000)">
                <g id="Group-3" transform="translate(23.000000, 23.000000)">
                    <g id="Group-3-Copy">
                        <use id="Oval-1" stroke="#6D6D6D" mask="url(#mask-2)" stroke-width="2.4" xlink:href="#path-1"></use>
                        <path d="M7.03414677,9.7444698 C7.03414677,9.20022551 7.12412129,8.7525474 7.30407303,8.40142205 C7.48402478,8.0502967 7.84392286,7.6552866 8.38377809,7.21637992 C8.92363332,6.77747323 9.24622489,6.48999366 9.3515625,6.35393258 C9.51395797,6.13886831 9.59515449,5.90186225 9.59515449,5.6429073 C9.59515449,5.28300382 9.45141471,4.97467649 9.16393083,4.71791608 C8.87644695,4.46115567 8.4891176,4.33277739 8.00193118,4.33277739 C7.53230102,4.33277739 7.13948543,4.46664192 6.82347261,4.734375 C6.5074598,5.00210808 6.29020424,5.41028518 6.17169944,5.95891854 L4.47313904,5.74824438 C4.52141878,4.96260141 4.85608011,4.29547325 5.47713308,3.74683989 C6.09818604,3.19820653 6.91344299,2.92389396 7.92292837,2.92389396 C8.98508256,2.92389396 9.82996526,3.20149828 10.4576018,3.75671524 C11.0852384,4.3119322 11.399052,4.95821261 11.399052,5.69557584 C11.399052,6.10375906 11.2838407,6.48999116 11.0534147,6.85428371 C10.8229887,7.21857626 10.3303233,7.71453338 9.57540379,8.34216994 C9.18477684,8.66696089 8.89505982,9.74446967 8.89505982,9.74446967 C8.89505982,9.74446967 7.03414677,9.79713861 7.03414677,9.7444698 Z M7.04073034,12.6741573 L7.04073034,10.8241749 L8.89071278,10.8241749 L8.89071278,12.6741573 L7.04073034,12.6741573 Z" id="?" fill="#6D6D6D"></path>
                    </g>
                </g>
            </g>
        </g>
    </g>
</svg>